<svg xmlns="http://www.w3.org/2000/svg" viewBox="0 0 779.36 142.08"><rect x="229.62" y="21.08" width="99.91" height="99.91" transform="translate(31.97 218.5) rotate(-45)" fill="#f9d062"/><path d="M14.63,106.36C61.85,152,130.92,82.94,85.28,35.72,38.07-9.93-31,59.14,14.63,106.36Z" transform="translate(0.32 0)" fill="#559cad"/><polygon points="189.83 141.69 189.83 0.39 119.18 71.04 189.83 141.69" fill="#fef2ec"/><polygon points="375.8 142.08 465.99 142.08 465.99 123.08 397.85 123.08 397.85 78.97 462.34 78.97 462.34 60.46 397.85 60.46 397.85 19 465.99 19 465.99 0 375.8 0 375.8 142.08" fill="#fef2ec"/><polygon points="526.34 121.3 525.85 121.3 499.86 38.5 477.21 38.5 514.52 142.08 537.37 142.08 574.48 38.5 552.33 38.5 526.34 121.3" fill="#fef2ec"/><path d="M577.91,88.62c-5.06,60.54,81.59,72.6,93.44,21H651.17c-10,26.2-54.57,16.8-52-16h73.35C681.05,19,576.85,12.64,577.91,88.62Zm21.56-10.05c2.45-35.07,50-36.13,52,0Z" transform="translate(0.32 0)" fill="#fef2ec"/><path d="M742.44,36.53c-15.66,0-26.29,7.09-31.71,17.63h-.49V38.5H689V142.08h21.27V81.72c0-16.14,9.65-27,24.61-27,14.78,0,22.06,8.77,22.06,24.32v63h21.37C774.91,111.21,793.94,34,742.44,36.53Z" transform="translate(0.32 0)" fill="#fef2ec"/></svg>